<svg xmlns="http://www.w3.org/2000/svg" width="180" height="124" viewBox="0 0 180 124" fill="none"><rect x="1.9375" y="1.9375" width="175.667" height="120.125" rx="8.39583" fill="white"></rect><path d="M70.5408 29.8282V31.0833H65.6655V29.8282H70.5408ZM66.1133 21.9003V31.0833H64.5303V21.9003H66.1133ZM69.9038 25.7349V26.9711H65.6655V25.7349H69.9038ZM70.5093 21.9003V23.1617H65.6655V21.9003H70.5093ZM72.8429 24.2591L74.1421 26.5233L75.4666 24.2591H77.1379L75.0692 27.6081L77.2199 31.0833H75.5485L74.161 28.7244L72.7735 31.0833H71.0958L73.2402 27.6081L71.1778 24.2591H72.8429ZM80.8401 29.9985C81.0882 29.9985 81.311 29.9501 81.5086 29.8534C81.7105 29.7525 81.8723 29.6137 81.9943 29.4371C82.1204 29.2605 82.1898 29.0566 82.2024 28.8254H83.6341C83.6257 29.2668 83.4953 29.6684 83.243 30.03C82.9908 30.3916 82.6565 30.6796 82.2402 30.894C81.824 31.1043 81.3636 31.2094 80.859 31.2094C80.3376 31.2094 79.8835 31.1211 79.4967 30.9445C79.1099 30.7637 78.7882 30.5156 78.5317 30.2003C78.2753 29.8849 78.0818 29.5212 77.9515 29.1092C77.8254 28.6971 77.7623 28.2556 77.7623 27.7847V27.564C77.7623 27.093 77.8254 26.6516 77.9515 26.2395C78.0818 25.8232 78.2753 25.4574 78.5317 25.1421C78.7882 24.8267 79.1099 24.5808 79.4967 24.4042C79.8835 24.2234 80.3355 24.133 80.8527 24.133C81.3993 24.133 81.8786 24.2423 82.2907 24.4609C82.7027 24.6754 83.0265 24.976 83.262 25.3628C83.5016 25.7455 83.6257 26.1911 83.6341 26.6999H82.2024C82.1898 26.4476 82.1267 26.2206 82.0132 26.0188C81.9039 25.8127 81.7483 25.6487 81.5465 25.5268C81.3489 25.4049 81.1113 25.3439 80.8338 25.3439C80.5268 25.3439 80.2725 25.407 80.0706 25.5331C79.8688 25.6551 79.7111 25.8232 79.5976 26.0377C79.4841 26.2479 79.4021 26.4855 79.3516 26.7504C79.3054 27.0111 79.2823 27.2823 79.2823 27.564V27.7847C79.2823 28.0664 79.3054 28.3397 79.3516 28.6046C79.3979 28.8695 79.4778 29.1071 79.5913 29.3173C79.709 29.5233 79.8688 29.6894 80.0706 29.8156C80.2725 29.9375 80.5289 29.9985 80.8401 29.9985ZM87.8093 31.2094C87.3047 31.2094 86.8485 31.1274 86.4407 30.9634C86.037 30.7952 85.6922 30.5619 85.4063 30.2633C85.1246 29.9648 84.9081 29.6137 84.7567 29.2101C84.6053 28.8064 84.5297 28.3713 84.5297 27.9045V27.6523C84.5297 27.1183 84.6074 26.6347 84.763 26.2017C84.9186 25.7686 85.1351 25.3986 85.4126 25.0916C85.6901 24.7805 86.0181 24.5429 86.3965 24.3789C86.7749 24.215 87.1849 24.133 87.6264 24.133C88.1141 24.133 88.5409 24.215 88.9067 24.3789C89.2725 24.5429 89.5752 24.7742 89.8149 25.0727C90.0588 25.367 90.2396 25.7181 90.3573 26.126C90.4792 26.5338 90.5402 26.9837 90.5402 27.4757V28.1253H85.2676V27.0342H89.0391V26.9143C89.0307 26.641 88.9761 26.3846 88.8752 26.1449C88.7785 25.9052 88.6292 25.7118 88.4274 25.5647C88.2255 25.4175 87.9564 25.3439 87.6201 25.3439C87.3678 25.3439 87.1428 25.3986 86.9452 25.5079C86.7518 25.613 86.5899 25.7665 86.4596 25.9683C86.3293 26.1701 86.2283 26.414 86.1569 26.6999C86.0896 26.9816 86.0559 27.2991 86.0559 27.6523V27.9045C86.0559 28.2031 86.0959 28.4806 86.1758 28.7371C86.2599 28.9893 86.3818 29.2101 86.5416 29.3993C86.7014 29.5885 86.8948 29.7378 87.1218 29.8471C87.3489 29.9522 87.6075 30.0048 87.8976 30.0048C88.2634 30.0048 88.5892 29.9312 88.8752 29.784C89.1611 29.6369 89.4092 29.4287 89.6194 29.1596L90.4204 29.9354C90.2732 30.1498 90.0819 30.3558 89.8464 30.5535C89.611 30.7469 89.323 30.9046 88.9824 31.0265C88.646 31.1484 88.255 31.2094 87.8093 31.2094ZM93.3531 21.3958V31.0833H91.8268V21.3958H93.3531ZM96.6453 21.3958V31.0833H95.1191V21.3958H96.6453ZM101.319 31.2094C100.814 31.2094 100.358 31.1274 99.9502 30.9634C99.5465 30.7952 99.2018 30.5619 98.9159 30.2633C98.6341 29.9648 98.4176 29.6137 98.2662 29.2101C98.1149 28.8064 98.0392 28.3713 98.0392 27.9045V27.6523C98.0392 27.1183 98.117 26.6347 98.2725 26.2017C98.4281 25.7686 98.6447 25.3986 98.9222 25.0916C99.1997 24.7805 99.5276 24.5429 99.906 24.3789C100.284 24.215 100.694 24.133 101.136 24.133C101.624 24.133 102.05 24.215 102.416 24.3789C102.782 24.5429 103.085 24.7742 103.324 25.0727C103.568 25.367 103.749 25.7181 103.867 26.126C103.989 26.5338 104.05 26.9837 104.05 27.4757V28.1253H98.7771V27.0342H102.549V26.9143C102.54 26.641 102.486 26.3846 102.385 26.1449C102.288 25.9052 102.139 25.7118 101.937 25.5647C101.735 25.4175 101.466 25.3439 101.13 25.3439C100.877 25.3439 100.652 25.3986 100.455 25.5079C100.261 25.613 100.099 25.7665 99.9691 25.9683C99.8388 26.1701 99.7379 26.414 99.6664 26.6999C99.5991 26.9816 99.5655 27.2991 99.5655 27.6523V27.9045C99.5655 28.2031 99.6054 28.4806 99.6853 28.7371C99.7694 28.9893 99.8913 29.2101 100.051 29.3993C100.211 29.5885 100.404 29.7378 100.631 29.8471C100.858 29.9522 101.117 30.0048 101.407 30.0048C101.773 30.0048 102.099 29.9312 102.385 29.784C102.671 29.6369 102.919 29.4287 103.129 29.1596L103.93 29.9354C103.783 30.1498 103.591 30.3558 103.356 30.5535C103.12 30.7469 102.832 30.9046 102.492 31.0265C102.156 31.1484 101.764 31.2094 101.319 31.2094ZM106.743 25.716V31.0833H105.223V24.2591H106.655L106.743 25.716ZM106.472 27.4189L105.98 27.4126C105.984 26.9291 106.051 26.4855 106.181 26.0818C106.316 25.6782 106.501 25.3313 106.736 25.0412C106.976 24.7511 107.262 24.5282 107.594 24.3726C107.926 24.2129 108.296 24.133 108.704 24.133C109.032 24.133 109.329 24.1792 109.594 24.2717C109.863 24.36 110.092 24.5051 110.281 24.7069C110.474 24.9087 110.622 25.1715 110.722 25.4953C110.823 25.8148 110.874 26.208 110.874 26.6747V31.0833H109.348V26.6684C109.348 26.3404 109.299 26.0818 109.203 25.8926C109.11 25.6992 108.973 25.5626 108.793 25.4827C108.616 25.3986 108.395 25.3565 108.13 25.3565C107.87 25.3565 107.636 25.4112 107.43 25.5205C107.224 25.6298 107.05 25.7791 106.907 25.9683C106.768 26.1575 106.661 26.3762 106.585 26.6242C106.509 26.8723 106.472 27.1372 106.472 27.4189ZM115.554 24.2591V25.3691H111.706V24.2591H115.554ZM112.816 22.5878H114.336V29.1975C114.336 29.4077 114.366 29.5696 114.425 29.6831C114.488 29.7924 114.574 29.866 114.683 29.9038C114.793 29.9417 114.921 29.9606 115.068 29.9606C115.173 29.9606 115.274 29.9543 115.371 29.9417C115.467 29.9291 115.545 29.9165 115.604 29.9038L115.61 31.0643C115.484 31.1022 115.337 31.1358 115.169 31.1652C115.005 31.1947 114.816 31.2094 114.601 31.2094C114.252 31.2094 113.943 31.1484 113.674 31.0265C113.405 30.9003 113.195 30.6964 113.043 30.4147C112.892 30.133 112.816 29.7588 112.816 29.2921V22.5878Z" fill="black"></path><g clip-path="url(#clip0_389_10689)"><path d="M43.7241 47.6797H18.0833V73.3205H43.7241V47.6797Z" fill="#219653"></path><path d="M30.9045 64.9606L34.804 63.9723L36.4333 68.9936L30.9045 64.9606ZM39.8788 58.4702H33.0145L30.9045 52.0066L28.7944 58.4702H21.9302L27.4857 62.4766L25.3757 68.9402L30.9312 64.9338L34.35 62.4766L39.8788 58.4702Z" fill="white"></path><path d="M73.1579 47.6797H47.5171V73.3205H73.1579V47.6797Z" fill="#219653"></path><path d="M60.3373 64.9606L64.2369 63.9723L65.8661 68.9936L60.3373 64.9606ZM69.3116 58.4702H62.4473L60.3373 52.0066L58.2273 58.4702H51.363L56.9185 62.4766L54.8085 68.9402L60.364 64.9338L63.7828 62.4766L69.3116 58.4702Z" fill="white"></path><path d="M102.591 47.6797H76.9504V73.3205H102.591V47.6797Z" fill="#219653"></path><path d="M89.7712 64.9606L93.6707 63.9723L95.3 68.9936L89.7712 64.9606ZM98.7455 58.4702H91.8812L89.7712 52.0066L87.6611 58.4702H80.7969L86.3524 62.4766L84.2424 68.9402L89.7979 64.9338L93.2167 62.4766L98.7455 58.4702Z" fill="white"></path><path d="M132.025 47.6797H106.384V73.3205H132.025V47.6797Z" fill="#219653"></path><path d="M119.203 64.9606L123.102 63.9723L124.732 68.9936L119.203 64.9606ZM128.177 58.4702H121.313L119.203 52.0066L117.093 58.4702H110.229L115.784 62.4766L113.674 68.9402L119.23 64.9338L122.648 62.4766L128.177 58.4702Z" fill="white"></path><path d="M161.458 47.6797H135.817V73.3205H161.458V47.6797Z" fill="#219653"></path><path d="M148.637 64.9606L152.536 63.9723L154.166 68.9936L148.637 64.9606ZM157.611 58.4702H150.747L148.637 52.0066L146.527 58.4702H139.663L145.218 62.4766L143.108 68.9402L148.664 64.9338L152.082 62.4766L157.611 58.4702Z" fill="white"></path></g><path d="M61.2369 101.135L65.1507 99.979L66.786 105.854L61.2369 101.135ZM70.2441 93.5417H63.3547L61.2369 85.9795L59.1191 93.5417H52.2297L57.8056 98.2291L55.6878 105.791L61.2637 101.104L64.695 98.2291L70.2441 93.5417Z" fill="#219653"></path><path d="M77.9918 91.1923V99.9167H76.2002V91.1923H77.9918ZM80.6763 91.1923V92.6004H73.5577V91.1923H80.6763ZM82.8993 94.8474V99.9167H81.1736V93.4333H82.7975L82.8993 94.8474ZM84.8528 93.3914L84.8228 94.9913C84.7389 94.9793 84.637 94.9693 84.5172 94.9613C84.4014 94.9493 84.2955 94.9433 84.1996 94.9433C83.9559 94.9433 83.7442 94.9753 83.5645 95.0392C83.3887 95.0991 83.2409 95.189 83.121 95.3088C83.0052 95.4287 82.9173 95.5745 82.8574 95.7463C82.8015 95.918 82.7695 96.1138 82.7615 96.3335L82.414 96.2256C82.414 95.8062 82.4559 95.4207 82.5398 95.0692C82.6237 94.7136 82.7455 94.404 82.9053 94.1404C83.0691 93.8767 83.2689 93.673 83.5045 93.5292C83.7402 93.3854 84.0099 93.3135 84.3135 93.3135C84.4093 93.3135 84.5072 93.3215 84.6071 93.3374C84.707 93.3494 84.7888 93.3674 84.8528 93.3914ZM89.5026 98.3648V93.4333H91.2283V99.9167H89.6045L89.5026 98.3648ZM89.6944 97.0346L90.2037 97.0226C90.2037 97.454 90.1538 97.8555 90.0539 98.227C89.954 98.5945 89.8042 98.9141 89.6045 99.1857C89.4047 99.4534 89.1531 99.6631 88.8495 99.8149C88.5459 99.9627 88.1884 100.037 87.7769 100.037C87.4613 100.037 87.1697 99.9926 86.9021 99.9048C86.6384 99.8129 86.4107 99.6711 86.219 99.4793C86.0312 99.2836 85.8834 99.0339 85.7755 98.7303C85.6717 98.4227 85.6197 98.0532 85.6197 97.6218V93.4333H87.3455V97.6338C87.3455 97.8255 87.3674 97.9873 87.4114 98.1191C87.4593 98.2509 87.5252 98.3588 87.6091 98.4427C87.693 98.5266 87.7909 98.5865 87.9027 98.6225C88.0186 98.6584 88.1464 98.6764 88.2862 98.6764C88.6418 98.6764 88.9214 98.6045 89.1251 98.4607C89.3328 98.3169 89.4786 98.1211 89.5625 97.8734C89.6504 97.6218 89.6944 97.3422 89.6944 97.0346ZM96.052 98.1251C96.052 98.0013 96.016 97.8894 95.9441 97.7896C95.8722 97.6897 95.7384 97.5978 95.5426 97.5139C95.3509 97.426 95.0733 97.3461 94.7097 97.2742C94.3822 97.2023 94.0766 97.1125 93.7929 97.0046C93.5133 96.8927 93.2696 96.7589 93.0619 96.6031C92.8582 96.4473 92.6984 96.2636 92.5825 96.0519C92.4667 95.8361 92.4088 95.5905 92.4088 95.3148C92.4088 95.0432 92.4667 94.7875 92.5825 94.5478C92.7024 94.3082 92.8722 94.0964 93.0919 93.9127C93.3156 93.7249 93.5872 93.5791 93.9068 93.4753C94.2304 93.3674 94.5939 93.3135 94.9974 93.3135C95.5606 93.3135 96.044 93.4034 96.4474 93.5831C96.8549 93.7629 97.1665 94.0106 97.3822 94.3261C97.6019 94.6377 97.7118 94.9933 97.7118 95.3927H95.986C95.986 95.2249 95.9501 95.0751 95.8782 94.9433C95.8103 94.8075 95.7024 94.7016 95.5546 94.6257C95.4108 94.5458 95.2231 94.5059 94.9914 94.5059C94.7996 94.5059 94.6338 94.5399 94.494 94.6078C94.3542 94.6717 94.2463 94.7596 94.1704 94.8714C94.0985 94.9793 94.0626 95.0991 94.0626 95.2309C94.0626 95.3308 94.0826 95.4207 94.1225 95.5006C94.1665 95.5765 94.2364 95.6464 94.3322 95.7103C94.4281 95.7742 94.5519 95.8341 94.7037 95.8901C94.8595 95.942 95.0513 95.9899 95.279 96.0339C95.7464 96.1298 96.1638 96.2556 96.5313 96.4114C96.8988 96.5632 97.1905 96.7709 97.4062 97.0346C97.6219 97.2942 97.7297 97.6358 97.7297 98.0592C97.7297 98.3468 97.6658 98.6105 97.538 98.8502C97.4102 99.0898 97.2264 99.2996 96.9867 99.4793C96.747 99.6551 96.4594 99.7929 96.1239 99.8928C95.7923 99.9887 95.4188 100.037 95.0033 100.037C94.4001 100.037 93.8888 99.9287 93.4694 99.713C93.0539 99.4973 92.7383 99.2237 92.5226 98.8921C92.3109 98.5565 92.205 98.213 92.205 97.8615H93.8409C93.8489 98.0972 93.9088 98.2869 94.0206 98.4307C94.1365 98.5745 94.2823 98.6784 94.4581 98.7423C94.6378 98.8062 94.8316 98.8382 95.0393 98.8382C95.263 98.8382 95.4488 98.8082 95.5966 98.7483C95.7444 98.6844 95.8562 98.6005 95.9321 98.4966C96.012 98.3888 96.052 98.2649 96.052 98.1251ZM102.026 93.4333V94.6557H98.2511V93.4333H102.026ZM99.1858 91.8334H100.912V97.9633C100.912 98.1511 100.936 98.2949 100.983 98.3948C101.035 98.4946 101.111 98.5645 101.211 98.6045C101.311 98.6404 101.437 98.6584 101.589 98.6584C101.697 98.6584 101.792 98.6544 101.876 98.6464C101.964 98.6344 102.038 98.6225 102.098 98.6105L102.104 99.8808C101.956 99.9287 101.796 99.9667 101.625 99.9946C101.453 100.023 101.263 100.037 101.055 100.037C100.676 100.037 100.344 99.9747 100.061 99.8508C99.781 99.723 99.5653 99.5193 99.4135 99.2396C99.2617 98.96 99.1858 98.5925 99.1858 98.1371V91.8334ZM104.734 94.6797V102.409H103.009V93.4333H104.609L104.734 94.6797ZM108.839 96.6031V96.729C108.839 97.2003 108.783 97.6378 108.671 98.0412C108.563 98.4447 108.404 98.7962 108.192 99.0958C107.98 99.3914 107.717 99.6231 107.401 99.7909C107.089 99.9547 106.73 100.037 106.322 100.037C105.927 100.037 105.583 99.9567 105.292 99.7969C105 99.6371 104.754 99.4134 104.555 99.1258C104.359 98.8342 104.201 98.4966 104.081 98.1131C103.962 97.7296 103.87 97.3182 103.806 96.8788V96.5492C103.87 96.0778 103.962 95.6464 104.081 95.2549C104.201 94.8594 104.359 94.5179 104.555 94.2303C104.754 93.9386 104.998 93.7129 105.286 93.5532C105.577 93.3934 105.919 93.3135 106.31 93.3135C106.722 93.3135 107.083 93.3914 107.395 93.5472C107.711 93.703 107.974 93.9267 108.186 94.2183C108.402 94.5099 108.563 94.8574 108.671 95.2609C108.783 95.6644 108.839 96.1118 108.839 96.6031ZM107.107 96.729V96.6031C107.107 96.3275 107.083 96.0738 107.035 95.8421C106.992 95.6064 106.92 95.4007 106.82 95.2249C106.724 95.0492 106.596 94.9134 106.436 94.8175C106.28 94.7176 106.091 94.6677 105.867 94.6677C105.631 94.6677 105.43 94.7056 105.262 94.7815C105.098 94.8574 104.964 94.9673 104.86 95.1111C104.756 95.2549 104.679 95.4267 104.627 95.6264C104.575 95.8262 104.543 96.0519 104.531 96.3035V97.1364C104.551 97.432 104.607 97.6977 104.699 97.9334C104.79 98.1651 104.932 98.3488 105.124 98.4846C105.316 98.6205 105.567 98.6884 105.879 98.6884C106.107 98.6884 106.298 98.6384 106.454 98.5386C106.61 98.4347 106.736 98.2929 106.832 98.1131C106.932 97.9334 107.001 97.7256 107.041 97.49C107.085 97.2543 107.107 97.0006 107.107 96.729ZM111.733 93.4333V99.9167H110.002V93.4333H111.733ZM109.894 91.7435C109.894 91.4919 109.982 91.2842 110.157 91.1204C110.333 90.9566 110.569 90.8747 110.864 90.8747C111.156 90.8747 111.39 90.9566 111.565 91.1204C111.745 91.2842 111.835 91.4919 111.835 91.7435C111.835 91.9952 111.745 92.2029 111.565 92.3667C111.39 92.5305 111.156 92.6124 110.864 92.6124C110.569 92.6124 110.333 92.5305 110.157 92.3667C109.982 92.2029 109.894 91.9952 109.894 91.7435ZM114.981 90.7129V99.9167H113.249V90.7129H114.981ZM116.131 96.7409V96.6151C116.131 96.1397 116.199 95.7023 116.335 95.3028C116.471 94.8994 116.669 94.5498 116.928 94.2542C117.188 93.9586 117.508 93.7289 117.887 93.5651C118.267 93.3974 118.702 93.3135 119.193 93.3135C119.685 93.3135 120.122 93.3974 120.506 93.5651C120.889 93.7289 121.211 93.9586 121.47 94.2542C121.734 94.5498 121.934 94.8994 122.07 95.3028C122.205 95.7023 122.273 96.1397 122.273 96.6151V96.7409C122.273 97.2123 122.205 97.6497 122.07 98.0532C121.934 98.4527 121.734 98.8022 121.47 99.1018C121.211 99.3974 120.891 99.6271 120.512 99.7909C120.132 99.9547 119.697 100.037 119.205 100.037C118.714 100.037 118.277 99.9547 117.893 99.7909C117.514 99.6271 117.192 99.3974 116.928 99.1018C116.669 98.8022 116.471 98.4527 116.335 98.0532C116.199 97.6497 116.131 97.2123 116.131 96.7409ZM117.857 96.6151V96.7409C117.857 97.0126 117.881 97.2663 117.929 97.5019C117.977 97.7376 118.053 97.9454 118.157 98.1251C118.265 98.3009 118.404 98.4387 118.576 98.5386C118.748 98.6384 118.958 98.6884 119.205 98.6884C119.445 98.6884 119.651 98.6384 119.823 98.5386C119.994 98.4387 120.132 98.3009 120.236 98.1251C120.34 97.9454 120.416 97.7376 120.464 97.5019C120.516 97.2663 120.542 97.0126 120.542 96.7409V96.6151C120.542 96.3515 120.516 96.1038 120.464 95.8721C120.416 95.6364 120.338 95.4287 120.23 95.2489C120.126 95.0652 119.988 94.9213 119.817 94.8175C119.645 94.7136 119.437 94.6617 119.193 94.6617C118.95 94.6617 118.742 94.7136 118.57 94.8175C118.402 94.9213 118.265 95.0652 118.157 95.2489C118.053 95.4287 117.977 95.6364 117.929 95.8721C117.881 96.1038 117.857 96.3515 117.857 96.6151ZM126.51 93.4333V94.6557H122.735V93.4333H126.51ZM123.669 91.8334H125.395V97.9633C125.395 98.1511 125.419 98.2949 125.467 98.3948C125.519 98.4946 125.595 98.5645 125.695 98.6045C125.795 98.6404 125.92 98.6584 126.072 98.6584C126.18 98.6584 126.276 98.6544 126.36 98.6464C126.448 98.6344 126.522 98.6225 126.582 98.6105L126.588 99.8808C126.44 99.9287 126.28 99.9667 126.108 99.9946C125.936 100.023 125.747 100.037 125.539 100.037C125.159 100.037 124.828 99.9747 124.544 99.8508C124.265 99.723 124.049 99.5193 123.897 99.2396C123.745 98.96 123.669 98.5925 123.669 98.1371V91.8334Z" fill="black"></path><rect x="1.9375" y="1.9375" width="175.667" height="120.125" rx="8.39583" stroke="#F1F1F5" stroke-width="3.875"></rect><defs><clipPath id="clip0_389_10689"><rect width="143.375" height="25.6408" fill="white" transform="translate(18.0833 47.6797)"></rect></clipPath></defs></svg>